HIERARCHY
ROOT Hips
{
  OFFSET 7.333 -26.027 -164.856
  CHANNELS 6 Xposition Yposition Zposition Zrotation Xrotation Yrotation
  JOINT LeftUpLeg
  {
    OFFSET 10.092 0.000 0.000
    CHANNELS 3 Zrotation Xrotation Yrotation
    JOINT LeftLeg
    {
      OFFSET 0.000 -38.160 -0.000
    CHANNELS 3 Zrotation Xrotation Yrotation
      JOINT LeftFoot
      {
        OFFSET -0.000 -24.040 0.000
    CHANNELS 3 Zrotation Xrotation Yrotation
        End Site
        {
          OFFSET -0.000 0.000 12.945
        }
      }
    }
  }
  JOINT RightUpLeg
  {
    OFFSET -10.092 -0.000 0.000
    CHANNELS 3 Zrotation Xrotation Yrotation
    JOINT RightLeg
    {
      OFFSET 0.000 -33.046 0.000
    CHANNELS 3 Zrotation Xrotation Yrotation
      JOINT RightFoot
      {
        OFFSET 0.000 -22.031 -0.000
    CHANNELS 3 Zrotation Xrotation Yrotation
        End Site
        {
          OFFSET 0.000 -0.000 11.863
        }
      }
    }
  }
  JOINT Spine
  {
    OFFSET -0.000 16.511 0.000
    CHANNELS 3 Zrotation Xrotation Yrotation
    JOINT LeftShoulder
    {
      OFFSET 0 16.511 0
    CHANNELS 3 Zrotation Xrotation Yrotation
      JOINT LeftArm
      {
        OFFSET 16.337 0.000 0.000
    CHANNELS 3 Zrotation Xrotation Yrotation
        JOINT LeftForeArm
        {
          OFFSET 0.000 -24.030 0.000
    CHANNELS 3 Zrotation Xrotation Yrotation
          JOINT LeftHand
          {
            OFFSET 0.000 -17.629 -0.000
    CHANNELS 3 Zrotation Xrotation Yrotation
            End Site
            {
              OFFSET 0.000 -11.753 -0.000
            }
          }
        }
      }
    }
    JOINT RightShoulder
    {
      OFFSET 0 16.511 0
    CHANNELS 3 Zrotation Xrotation Yrotation
      JOINT RightArm
      {
        OFFSET -16.337 0.000 0.000
    CHANNELS 3 Zrotation Xrotation Yrotation
        JOINT RightForeArm
        {
          OFFSET -0.000 -19.534 0.000
    CHANNELS 3 Zrotation Xrotation Yrotation
          JOINT RightHand
          {
            OFFSET 0.000 -19.514 -0.000
    CHANNELS 3 Zrotation Xrotation Yrotation
            End Site
            {
              OFFSET 0.000 -13.010 -0.000
            }
          }
        }
      }
    }
    JOINT Neck
    {
      OFFSET -0.000 16.511 0.000
    CHANNELS 3 Zrotation Xrotation Yrotation
      JOINT Head
      {
        OFFSET -0.000 12.493 -0.000
    CHANNELS 3 Zrotation Xrotation Yrotation
        End Site
        {
          OFFSET -0.000 8.328 -0.000
        }
      }
    }
  }
}
MOTION
Frames: 8
Frame Time: 0.0333333
0 0 0 1.283970e+00 -1.218680e+00 -1.735215e+01 -3.360098e+00 1.291352e+01 8.499743e-01 7.031244e+00 -1.815561e+01 1.138408e+00 0 0 NaN -1.808594e+00 1.095896e+01 5.327839e-01 6.382654e+00 -1.346838e+01 9.407166e-01 0 0 -5.867639e-08 1.910965e-07 -4.951533e-07 3.435085e-05 0 0 0 4.006538e+01 -3.376593e+01 7.348592e+00 1.104166e+02 -2.653176e+01 1.234441e+02 NaN NaN NaN 0 0 0 -3.696094e+01 -5.547539e+01 3.256695e+01 -1.052950e+02 4.945311e+00 -1.227064e+02 -9.950997e-08 NaN -9.343489e-08 4.247338e-01 9.601637e-01 5.597166e-03 0 0 1.281754e-07 
0 0 0 1.363458e+00 -1.456725e+00 -1.730446e+01 -3.605895e+00 1.306937e+01 8.148690e-01 6.811542e+00 -1.762387e+01 1.291636e+00 0 0 4.607172e-08 -1.910005e+00 1.165487e+01 6.079344e-01 6.979666e+00 -1.478426e+01 9.398028e-01 0 0 -1.055478e-07 2.939833e-07 -7.860338e-07 -1.100000e-05 0 0 0 4.020573e+01 -3.717314e+01 8.001833e+00 1.105903e+02 -2.565830e+01 1.249821e+02 -4.625111e-08 NaN 1.026295e-07 0 0 0 -3.677520e+01 -5.400319e+01 3.314746e+01 -1.048931e+02 4.984225e+00 -1.228263e+02 NaN -3.094177e-08 -3.698269e-08 3.771910e-01 9.829789e-01 4.758000e-03 0 0 1.431166e-07 
0 0 0 1.275181e+00 -1.544048e+00 -1.733654e+01 -3.935123e+00 1.263738e+01 7.828905e-01 7.001455e+00 -1.813190e+01 1.070650e+00 0 0 -3.078062e-08 -1.885910e+00 1.244928e+01 5.232062e-01 NaN -1.434910e+01 9.716082e-01 0 0 NaN 6.249228e-07 -1.112855e-06 -2.567116e-05 0 0 0 4.009061e+01 -4.034377e+01 8.100836e+00 1.110233e+02 -2.427619e+01 1.267694e+02 -4.974446e-08 1.871476e-07 1.016925e-07 0 0 0 -3.680147e+01 -5.230493e+01 3.310536e+01 -1.050335e+02 4.719378e+00 -1.230285e+02 -1.007127e-07 -9.044065e-08 -1.766274e-07 3.647600e-01 9.995757e-01 2.822433e-03 0 0 NaN 
0 0 0 1.203903e+00 -1.577224e+00 -1.732289e+01 -4.175011e+00 1.236661e+01 7.612614e-01 6.935632e+00 -1.739292e+01 1.025359e+00 0 0 -7.264142e-08 -1.862593e+00 1.274899e+01 5.601089e-01 6.694884e+00 -1.482185e+01 9.564164e-01 0 0 -2.449689e-08 1.676161e-07 3.215549e-08 3.283601e-05 0 0 0 4.004853e+01 -3.980882e+01 8.462057e+00 1.110387e+02 -2.349776e+01 1.273744e+02 -8.889404e-08 NaN NaN 0 0 0 -3.673859e+01 -5.067962e+01 3.268010e+01 -1.053517e+02 4.971407e+00 -1.230169e+02 -1.040602e-07 -1.062780e-07 NaN 4.237151e-01 9.851329e-01 2.074978e-03 0 0 1.551474e-07 
0 0 0 1.236765e+00 -1.968710e+00 -1.733973e+01 -3.914011e+00 1.221528e+01 8.456263e-01 7.177804e+00 -1.739922e+01 1.053007e+00 0 0 -5.981000e-08 -1.908258e+00 1.318859e+01 5.623993e-01 6.440998e+00 -1.387592e+01 9.470985e-01 0 0 5.758586e-09 2.453858e-07 -3.567883e-07 6.105673e-05 0 0 0 3.987029e+01 -3.879945e+01 8.741523e+00 1.107251e+02 -2.171050e+01 1.283989e+02 -1.026395e-07 7.921693e-08 5.304000e-08 0 0 0 -3.677868e+01 -4.821962e+01 3.223501e+01 -1.050482e+02 5.097696e+00 -1.227796e+02 NaN -1.212338e-07 2.813618e-08 4.152927e-01 9.620058e-01 NaN 0 0 2.159706e-07 
0 0 0 1.283104e+00 -1.924976e+00 -1.733654e+01 -3.772168e+00 1.237867e+01 8.747663e-01 7.577186e+00 -1.733907e+01 1.140343e+00 0 0 -5.879248e-08 -1.843561e+00 1.343642e+01 5.151887e-01 6.497947e+00 -1.305220e+01 9.138672e-01 0 0 -4.026953e-08 2.430800e-07 -1.038258e-06 3.800000e-05 0 0 0 3.978904e+01 -3.821019e+01 9.450304e+00 1.105155e+02 -2.076994e+01 1.311389e+02 NaN 1.475134e-07 1.215893e-07 0 0 0 -3.685239e+01 -4.418857e+01 3.180740e+01 -1.051509e+02 5.141044e+00 -1.227897e+02 -6.802592e-08 NaN -4.725017e-08 3.775828e-01 9.939258e-01 -3.689403e-04 0 0 NaN 
0 0 0 1.346088e+00 -1.941618e+00 -1.736270e+01 -3.506808e+00 1.255549e+01 8.432034e-01 8.170943e+00 -1.752015e+01 1.109544e+00 0 0 -7.885817e-08 -1.805320e+00 1.377121e+01 4.816166e-01 6.106954e+00 -1.358155e+01 8.632648e-01 0 0 -6.607025e-08 2.324739e-07 -9.426326e-07 -1.259956e-05 0 0 0 3.985752e+01 -3.879287e+01 9.331547e+00 1.103772e+02 -1.974145e+01 1.332548e+02 -5.124546e-08 -3.452213e-08 NaN 0 0 0 -3.688219e+01 -4.003065e+01 3.171226e+01 -1.051807e+02 5.207537e+00 -1.230913e+02 -9.000578e-08 -7.272592e-08 -9.268234e-08 3.923103e-01 9.885776e-01 -8.682225e-04 0 0 3.686760e-08 
0 0 0 1.255384e+00 -1.910946e+00 -1.733812e+01 -3.534093e+00 1.267454e+01 8.776870e-01 7.787790e+00 -1.687904e+01 1.246107e+00 0 0 -4.423720e-08 -1.859299e+00 1.390954e+01 5.129316e-01 6.062907e+00 -1.351414e+01 8.734034e-01 0 0 -8.943789e-08 2.489969e-07 -1.016742e-06 -3.200000e-05 0 0 0 4.000040e+01 -3.991926e+01 9.005309e+00 1.103513e+02 -1.804924e+01 1.332776e+02 -6.122795e-08 1.811316e-07 NaN 0 0 0 -3.705646e+01 -3.724878e+01 3.142923e+01 -1.052529e+02 5.138264e+00 -1.233044e+02 1.098794e-08 -1.537444e-07 -6.926884e-08 3.935629e-01 9.690400e-01 -2.598263e-03 0 0 2.493253e-07 
